# Blender v2.81 (sub 16) OBJ File: ''
# www.blender.org
mtllib WaterNew2.mtl
o Plane.001
v 59.475636 -31.538937 163.724457
v -59.475636 -31.538839 -427.408783
v -59.475636 -31.538937 163.724457
v 59.475636 -31.538839 -427.408783
v 59.475636 0.811928 163.724457
v -59.475636 0.811928 163.724457
v -59.475636 0.812023 -427.408783
v 59.475636 0.812023 -427.408783
vt 1.000000 0.000000
vt 0.000000 0.000000
vt 0.000000 1.000000
vt 1.000000 1.000000
vt 1.000000 0.000000
vt 0.000000 1.000000
vt 0.000000 0.000000
vt 1.000000 1.000000
vn 0.5774 -0.5774 0.5774
vn -0.5774 -0.5774 0.5774
vn -0.5774 -0.5774 -0.5774
vn 0.5774 -0.5774 -0.5774
vn 0.5774 0.5774 0.5774
vn -0.5774 0.5774 -0.5774
vn -0.5774 0.5774 0.5774
vn 0.5774 0.5774 -0.5774
usemtl Material.001
s 1
f 1/1/1 3/2/2 2/3/3
f 1/1/1 2/3/3 4/4/4
f 5/5/5 7/6/6 6/7/7
f 5/5/5 8/8/8 7/6/6
f 4/4/4 2/3/3 7/6/6 8/8/8
f 2/3/3 3/2/2 6/7/7 7/6/6
f 3/2/2 1/1/1 5/5/5 6/7/7
f 1/1/1 4/4/4 8/8/8 5/5/5
o Plane.000_Plane.002
v 59.475636 0.786723 163.724457
v -59.475636 0.786819 -427.408783
v -59.475636 0.786723 163.724457
v 59.475636 0.786819 -427.408783
vt 1.000000 0.000000
vt 0.000000 0.000000
vt 0.000000 1.000000
vt 1.000000 1.000000
vn 0.0000 -1.0000 -0.0000
usemtl Material.002
s 1
f 9/9/9 11/10/9 10/11/9
f 9/9/9 10/11/9 12/12/9
