# Blender v2.81 (sub 16) OBJ File: ''
# www.blender.org
mtllib 0011_BarrelNew.mtl
o Circle096
v 987.771912 328.404785 51.323730
v 960.649963 328.404816 -183.749100
v 883.406921 328.404846 -399.625854
v 762.227905 328.404877 -590.121643
v 603.298096 328.404907 -749.051392
v 412.802307 328.404938 -870.230225
v 196.925461 328.404938 -947.473389
v -38.147228 328.404938 -974.595337
v -273.220062 328.404938 -947.473389
v -489.096832 328.404938 -870.230347
v -679.592590 328.404907 -749.051392
v -838.522400 328.404877 -590.121521
v -959.701294 328.404846 -399.625671
v -1036.944214 328.404816 -183.748871
v -1064.066284 328.404785 51.323818
v -1036.944214 328.404724 286.396637
v -959.701294 328.404694 502.273407
v -838.522278 328.404663 692.769165
v -679.592468 328.404633 851.698975
v -489.096680 328.404633 972.877686
v -273.219879 328.404602 1050.120850
v -38.147171 328.404602 1077.242798
v 196.925644 328.404602 1050.120850
v 412.802399 328.404633 972.877808
v 603.298157 328.404633 851.698853
v 762.227905 328.404663 692.769043
v 883.406799 328.404694 502.273224
v 960.649963 328.404724 286.396454
l 1 2
l 2 3
l 3 4
l 4 5
l 5 6
l 6 7
l 7 8
l 8 9
l 9 10
l 10 11
l 11 12
l 12 13
l 13 14
l 14 15
l 15 16
l 16 17
l 17 18
l 18 19
l 19 20
l 20 21
l 21 22
l 22 23
l 23 24
l 24 25
l 25 26
l 26 27
l 27 28
l 28 1
o barrel_obj
v 10.009141 15.326789 -0.053610
v 10.015576 17.879498 -0.065752
v 5.006080 17.908718 8.527235
v 5.115262 15.409303 8.585597
v 10.079552 6.569490 0.055433
v 5.197826 6.540580 8.541698
v 9.960283 3.635740 0.087652
v 5.143882 3.635092 8.401402
v 5.281873 3.655945 -8.982863
v 5.251671 6.537587 -9.005033
v 5.344299 15.347987 -8.969254
v 5.174548 17.882061 -8.818153
v -4.912103 15.318090 -8.870427
v -4.839414 17.856451 -8.730859
v -5.075064 6.508305 -8.947394
v -5.005803 3.597158 -8.983015
v -10.001610 3.651215 0.019729
v -10.076078 6.537049 0.107757
v -5.134792 3.612838 9.005034
v -5.063386 6.566909 8.885994
v -10.079552 15.345857 -0.116075
v -5.066471 15.355690 8.664457
v -9.809675 17.840111 -0.107515
v -4.934198 17.907204 8.536055
v -3.913492 22.689478 7.385919
v -8.336691 22.505486 0.362977
v 4.194427 22.646961 7.291948
v 8.657902 22.601534 -0.082787
v 4.308929 22.691637 -7.539481
v -4.324776 22.655512 -7.394548
v -7.209026 22.694054 0.017604
v -3.690627 22.720896 -6.513751
v 3.739573 22.768234 -6.386325
v 7.621415 22.651466 -0.034372
v 3.587881 22.341068 -6.080765
v 7.118189 22.350473 -0.132225
v 3.832831 22.623934 6.314398
v -6.802663 22.282022 -0.047582
v -3.430040 22.669867 6.383393
v -3.300808 22.338381 5.969981
v -4.177430 0.031499 -7.586083
v -8.391675 -0.086546 -0.072965
v -4.182141 -0.041175 7.379711
v 4.384205 -0.175847 7.235959
v 8.583222 -0.168418 -0.041028
v 4.567857 0.000001 -7.533200
v 3.948670 -0.070541 -6.603236
v -3.565929 -0.190948 -6.531549
v -7.305314 -0.168959 -0.128093
v 7.636975 -0.191990 -0.079385
v 7.276838 0.303637 -0.023804
v 3.766014 0.316719 -6.248838
v 3.963002 -0.212708 6.354980
v -3.578757 -0.128286 6.399756
v -6.981305 0.259257 -0.111339
v -3.460108 0.269355 6.123151
v 3.651092 22.273523 5.936318
v -3.380829 22.370213 -6.015049
v 3.726479 0.318897 6.154082
v -3.333641 0.304365 -6.259787
vt 0.342727 0.160818
vt 0.499032 0.205134
vt 0.338291 0.201352
vt 0.493397 0.344716
vt 0.333946 0.340056
vt 0.336899 0.387170
vt 0.492754 0.391705
vt 0.172477 0.383249
vt 0.164350 0.335725
vt 0.173808 0.189226
vt 0.182468 0.148086
vt 0.002395 0.156731
vt 0.000977 0.351187
vt 0.016555 0.412071
vt 0.999023 0.367784
vt 0.817659 0.393171
vt 0.825577 0.345657
vt 0.660254 0.343886
vt 0.830140 0.197664
vt 0.988882 0.175058
vt 0.664625 0.205937
vt 0.821240 0.156217
vt 0.973352 0.121926
vt 0.660808 0.165589
vt 0.500976 0.165322
vt 0.786597 0.080058
vt 0.644969 0.085843
vt 0.504299 0.084869
vt 0.353420 0.082704
vt 0.207809 0.068636
vt 0.020215 0.103276
vt 0.083614 0.016913
vt 0.921868 0.031071
vt 0.786093 0.062767
vt 0.903781 0.018709
vt 0.103020 0.007729
vt 0.219029 0.052220
vt 0.357572 0.059841
vt 0.357880 0.068588
vt 0.500713 0.070478
vt 0.645339 0.062039
vt 0.782869 0.053993
vt 0.644763 0.070329
vt 0.800395 0.458038
vt 0.984423 0.428468
vt 0.935306 0.494682
vt 0.649476 0.454621
vt 0.656688 0.390656
vt 0.493694 0.457543
vt 0.341167 0.452772
vt 0.055688 0.482731
vt 0.193022 0.446960
vt 0.197139 0.463025
vt 0.075367 0.497749
vt 0.915665 0.509079
vt 0.341438 0.466062
vt 0.200719 0.471569
vt 0.343464 0.475931
vt 0.491261 0.471033
vt 0.645991 0.470480
vt 0.795025 0.473198
vt 0.645784 0.478427
vt 0.729424 0.561529
vt 0.588569 0.705816
vt 0.505239 0.623784
vt 0.114166 0.000977
vt 0.892981 0.011512
vt 0.645916 0.480083
vt 0.533502 0.511870
vt 0.500237 0.062009
vt 0.145950 0.489429
vt 0.336871 0.571414
vt 0.099028 0.600509
vt 0.493398 0.480961
vt 0.171742 0.695408
vt 0.084074 0.505308
vt 0.791321 0.481449
vt 0.908502 0.517579
vt 0.223758 0.044361
vt 0.700515 0.675185
vt 0.265241 0.475196
vt 0.290820 0.681275
vn 0.9849 0.1726 0.0147
vn 0.4994 0.0172 0.8662
vn 1.0000 -0.0050 0.0032
vn 0.5039 -0.0145 0.8637
vn 0.9999 -0.0050 0.0108
vn 0.9831 -0.1832 0.0038
vn 0.4922 -0.2142 0.8437
vn 0.5027 -0.2166 -0.8369
vn 0.5057 0.0042 -0.8627
vn 0.5151 0.0260 -0.8567
vn 0.4896 0.2195 -0.8439
vn -0.5151 0.0330 -0.8565
vn -0.5095 0.0065 -0.8604
vn -0.5121 -0.2032 -0.8346
vn -0.9739 -0.2268 0.0032
vn -0.9999 -0.0096 0.0107
vn -0.4846 0.0256 0.8743
vn -0.9993 0.0347 -0.0113
vn -0.4975 0.0303 0.8669
vn -0.9752 0.2206 -0.0176
vn -0.4647 0.1593 -0.8710
vn -0.4939 0.2035 0.8454
vn 0.5215 0.1521 0.8396
vn -0.6734 0.6213 0.4006
vn -0.4234 0.4109 0.8074
vn 0.4531 0.3986 0.7974
vn 0.8948 0.4130 -0.1695
vn 0.4452 0.4019 -0.8002
vn -0.4745 0.4012 -0.7835
vn 0.0493 0.9988 -0.0011
vn 0.0187 0.9992 0.0360
vn -0.0630 0.9884 0.1380
vn 0.0118 0.9999 0.0100
vn -0.0531 0.9986 0.0043
vn -0.0822 0.9848 -0.1529
vn 0.0352 0.9985 -0.0423
vn 0.1134 0.9933 0.0241
vn 0.1610 0.9448 -0.2854
vn -0.6407 -0.7104 -0.2914
vn -0.4328 -0.4963 -0.7525
vn -0.4127 -0.5230 0.7457
vn -0.4570 -0.1921 0.8685
vn 0.4406 -0.4592 0.7713
vn 0.8899 -0.4561 0.0006
vn 0.4630 -0.5013 -0.7310
vn -0.0659 -0.9951 0.0732
vn 0.0499 -0.9976 0.0478
vn -0.2063 -0.9784 -0.0099
vn 0.0470 -0.6972 0.7153
vn -0.1080 -0.9942 0.0015
vn -0.1442 -0.9738 -0.1761
vn 0.0540 -0.9927 -0.1080
vn 0.3312 -0.9335 0.1377
vn 0.0418 -0.9983 -0.0413
vn 0.0614 0.9780 -0.1994
vn -0.0926 0.6572 0.7480
vn -0.0102 0.9999 -0.0131
vn 0.0516 -0.9929 0.1071
vn -0.0382 -0.9944 -0.0988
vn 0.7589 -0.5475 0.3526
usemtl lambert3SG
s 1
f 30/1/1 32/2/2 29/3/3
f 29/3/3 34/4/4 33/5/5
f 35/6/6 34/4/4 36/7/7
f 33/5/5 37/8/8 38/9/9
f 29/3/3 38/9/9 39/10/10
f 29/3/3 40/11/11 30/1/1
f 41/12/12 40/11/11 39/10/10
f 41/12/12 38/9/9 43/13/13
f 44/14/14 38/9/9 37/8/8
f 43/15/13 45/16/15 46/17/16
f 45/16/15 48/18/17 46/17/16
f 48/18/17 36/7/7 34/4/4
f 43/15/13 49/19/18 41/20/12
f 46/17/16 50/21/19 49/19/18
f 48/18/17 32/2/2 50/21/19
f 41/20/12 51/22/20 42/23/21
f 51/22/20 50/21/19 52/24/22
f 52/24/22 32/2/2 31/25/23
f 54/26/24 52/24/22 53/27/25
f 53/27/25 31/25/23 55/28/26
f 56/29/27 31/25/23 30/1/1
f 56/29/27 40/11/11 57/30/28
f 57/30/28 42/31/21 58/32/29
f 51/22/20 58/33/29 42/23/21
f 58/33/29 59/34/30 60/35/31
f 57/30/28 60/36/31 61/37/32
f 61/37/32 64/38/33 62/39/34
f 56/29/27 61/37/32 62/39/34
f 56/29/27 65/40/35 55/28/26
f 59/34/30 68/41/36 66/42/37
f 55/28/26 67/43/38 53/27/25
f 67/43/38 54/26/24 53/27/25
f 70/44/39 44/45/14 69/46/40
f 45/16/15 71/47/41 47/48/42
f 36/7/7 71/47/41 72/49/43
f 35/6/6 72/49/43 73/50/44
f 69/51/40 37/8/8 74/52/45
f 35/6/6 74/52/45 37/8/8
f 69/51/40 75/53/46 76/54/47
f 76/55/47 70/44/39 69/46/40
f 75/53/46 73/50/44 78/56/48
f 80/57/49 78/56/48 79/58/50
f 81/59/51 73/50/44 72/49/43
f 70/44/39 82/60/52 71/47/41
f 77/61/53 84/62/54 82/60/52
f 82/60/52 72/49/43 71/47/41
f 85/63/55 63/64/56 86/65/57
f 86/66/57 61/37/32 60/36/31
f 86/67/57 59/34/30 66/42/37
f 68/68/36 86/65/57 66/69/37
f 62/39/34 85/70/55 65/40/35
f 85/70/55 67/43/38 65/40/35
f 84/71/54 88/72/58 87/73/59
f 82/60/52 87/74/59 81/59/51
f 88/72/58 79/75/50 87/73/59
f 79/58/50 81/59/51 87/74/59
f 75/53/46 88/76/58 76/54/47
f 83/77/60 76/55/47 88/78/58
f 30/1/1 31/25/23 32/2/2
f 29/3/3 32/2/2 34/4/4
f 35/6/6 33/5/5 34/4/4
f 33/5/5 35/6/6 37/8/8
f 29/3/3 33/5/5 38/9/9
f 29/3/3 39/10/10 40/11/11
f 41/12/12 42/31/21 40/11/11
f 41/12/12 39/10/10 38/9/9
f 44/14/14 43/13/13 38/9/9
f 43/15/13 44/45/14 45/16/15
f 45/16/15 47/48/42 48/18/17
f 48/18/17 47/48/42 36/7/7
f 43/15/13 46/17/16 49/19/18
f 46/17/16 48/18/17 50/21/19
f 48/18/17 34/4/4 32/2/2
f 41/20/12 49/19/18 51/22/20
f 51/22/20 49/19/18 50/21/19
f 52/24/22 50/21/19 32/2/2
f 54/26/24 51/22/20 52/24/22
f 53/27/25 52/24/22 31/25/23
f 56/29/27 55/28/26 31/25/23
f 56/29/27 30/1/1 40/11/11
f 57/30/28 40/11/11 42/31/21
f 51/22/20 54/26/24 58/33/29
f 58/33/29 54/26/24 59/34/30
f 57/30/28 58/32/29 60/36/31
f 61/37/32 63/79/56 64/38/33
f 56/29/27 57/30/28 61/37/32
f 56/29/27 62/39/34 65/40/35
f 59/34/30 67/43/38 68/41/36
f 55/28/26 65/40/35 67/43/38
f 67/43/38 59/34/30 54/26/24
f 70/44/39 45/16/15 44/45/14
f 45/16/15 70/44/39 71/47/41
f 36/7/7 47/48/42 71/47/41
f 35/6/6 36/7/7 72/49/43
f 69/51/40 44/14/14 37/8/8
f 35/6/6 73/50/44 74/52/45
f 69/51/40 74/52/45 75/53/46
f 76/55/47 77/61/53 70/44/39
f 75/53/46 74/52/45 73/50/44
f 80/57/49 75/53/46 78/56/48
f 81/59/51 78/56/48 73/50/44
f 70/44/39 77/61/53 82/60/52
f 77/61/53 83/77/60 84/62/54
f 82/60/52 81/59/51 72/49/43
f 85/63/55 64/80/33 63/64/56
f 86/66/57 63/79/56 61/37/32
f 86/67/57 60/35/31 59/34/30
f 68/68/36 85/63/55 86/65/57
f 62/39/34 64/38/33 85/70/55
f 85/70/55 68/41/36 67/43/38
f 84/71/54 83/81/60 88/72/58
f 82/60/52 84/62/54 87/74/59
f 88/72/58 80/82/49 79/75/50
f 79/58/50 78/56/48 81/59/51
f 75/53/46 80/57/49 88/76/58
f 83/77/60 77/61/53 76/55/47
