# Blender v2.81 (sub 16) OBJ File: ''
# www.blender.org
mtllib Wall2.mtl
o Plane
v -1.238693 -9.264076 -0.000000
v -1.238693 120.650902 0.000000
v 148.036438 -9.264076 -0.000000
v 148.036438 108.537888 0.000000
v 298.398560 -9.264076 -26.321215
v 298.398560 131.889297 -26.321213
v 447.952393 -9.264076 -0.000000
v 447.952393 120.650902 0.000000
v 598.179871 -9.264076 18.313461
v 598.179871 136.250244 18.313463
v 748.542053 -9.264076 21.790359
v 746.095459 119.569794 20.666656
v 898.904297 -9.264076 -0.000000
v 898.904297 147.304688 0.000000
v 1048.458130 -9.264076 -18.846134
v 1048.458130 103.232231 -18.846134
v 1197.203613 -9.264076 -0.000000
v 1197.203613 128.369049 0.000000
v 1348.535767 -9.264076 -18.378973
v 1348.535767 105.807549 -18.378973
v 1498.213623 -9.264076 15.942950
v 1498.213623 126.199081 15.942951
v 1649.114746 -9.264076 -0.000000
v 1649.114746 114.925537 0.000000
v 1798.668579 -9.264076 -21.268089
v 1798.668579 130.961304 -21.268089
v 1949.165649 -9.264076 -0.000000
v 1949.165649 120.650902 0.000000
vt 0.000026 -0.000026
vt 0.999974 1.000026
vt -0.000026 0.999974
vt 0.000026 -0.000026
vt 0.999974 1.000026
vt -0.000026 0.999974
vt 0.000026 -0.000026
vt 0.999974 1.000026
vt -0.000026 0.999974
vt 0.000026 -0.000026
vt 0.999974 1.000026
vt -0.000026 0.999974
vt 0.000026 -0.000026
vt 0.999974 1.000026
vt -0.000026 0.999974
vt 0.000026 -0.000026
vt 0.999974 1.000026
vt -0.000026 0.999974
vt 0.000026 -0.000026
vt 0.999974 1.000026
vt -0.000026 0.999974
vt 0.000026 -0.000026
vt 0.999974 1.000026
vt -0.000026 0.999974
vt 0.000026 -0.000026
vt 0.999974 1.000026
vt -0.000026 0.999974
vt 0.000026 -0.000026
vt 0.999974 1.000026
vt -0.000026 0.999974
vt 0.000026 -0.000026
vt 0.999974 1.000026
vt -0.000026 0.999974
vt 0.000026 -0.000026
vt 0.999974 1.000026
vt -0.000026 0.999974
vt 0.000026 -0.000026
vt 0.999974 1.000026
vt -0.000026 0.999974
vt 1.000026 0.000026
vt 1.000026 0.000026
vt 1.000026 0.000026
vt 1.000026 0.000026
vt 1.000026 0.000026
vt 1.000026 0.000026
vt 1.000026 0.000026
vt 1.000026 0.000026
vt 1.000026 0.000026
vt 1.000026 0.000026
vt 1.000026 0.000026
vt 1.000026 0.000026
vt 1.000026 0.000026
vn -0.0000 -0.0000 1.0000
vn 0.1724 0.0000 0.9850
vn -0.1733 0.0000 0.9849
vn -0.1210 0.0000 0.9927
vn -0.0159 -0.0000 0.9999
vn 0.1320 0.0112 0.9912
vn 0.1250 0.0000 0.9922
vn -0.1257 0.0000 0.9921
vn 0.1206 0.0000 0.9927
vn -0.2235 0.0000 0.9747
vn 0.1051 0.0000 0.9945
vn 0.1408 0.0000 0.9900
vn -0.1399 0.0000 0.9902
vn -0.0231 0.0083 0.9997
vn 0.1434 -0.0000 0.9897
usemtl Material.004
s off
f 1/1/1 4/2/1 2/3/1
f 3/4/2 6/5/2 4/6/2
f 5/7/3 8/8/3 6/9/3
f 7/10/4 10/11/4 8/12/4
f 9/13/5 12/14/5 10/15/5
f 11/16/6 14/17/6 12/18/6
f 13/19/7 16/20/7 14/21/7
f 15/22/8 18/23/8 16/24/8
f 17/25/9 20/26/9 18/27/9
f 19/28/10 22/29/10 20/30/10
f 21/31/11 24/32/11 22/33/11
f 23/34/12 26/35/12 24/36/12
f 25/37/13 28/38/13 26/39/13
f 1/1/1 3/40/1 4/2/1
f 3/4/2 5/41/2 6/5/2
f 5/7/3 7/42/3 8/8/3
f 7/10/4 9/43/4 10/11/4
f 9/13/14 11/44/14 12/14/14
f 11/16/15 13/45/15 14/17/15
f 13/19/7 15/46/7 16/20/7
f 15/22/8 17/47/8 18/23/8
f 17/25/9 19/48/9 20/26/9
f 19/28/10 21/49/10 22/29/10
f 21/31/11 23/50/11 24/32/11
f 23/34/12 25/51/12 26/35/12
f 25/37/13 27/52/13 28/38/13
