# Blender v2.92.0 OBJ File: ''
# www.blender.org
mtllib MolinoNew.mtl
o windmill.001
v -38.524769 92.814362 -28.447002
v 39.352936 189.254608 -33.727108
v 39.622723 92.814423 -33.638351
v -36.209843 223.721191 2.430278
v -38.269230 189.254608 -28.570658
v -34.150444 189.254608 33.431206
v -34.420101 92.814346 33.342403
v 43.471722 189.254608 28.274759
v -40.627300 186.631882 -30.451536
v 41.441544 188.401184 -35.903366
v 41.441544 186.631882 -35.903366
v -36.239040 186.631882 35.607464
v 45.829853 188.401184 30.155636
v -36.239040 188.401184 35.607464
v 43.635685 223.721176 -2.873892
v 43.635685 225.490494 -2.873871
v 41.412312 223.721191 -2.726171
v -38.433205 225.490494 2.577977
v -38.433205 223.721191 2.577976
v -40.627346 188.401184 -30.451534
v 43.727394 92.814407 28.151052
v -6.262930 69.284882 46.761101
v 9.743155 69.411270 49.095634
v -6.413442 69.388306 48.934380
v 9.893665 69.307831 46.922356
v 9.715596 33.743622 49.453346
v -47.443642 54.871330 6.493217
v -44.476219 54.708027 -9.361609
v -47.107395 54.736603 -9.417574
v -44.641361 70.428741 6.300339
v -47.272545 70.457336 6.244373
v -44.306908 70.426834 -9.395074
v -6.196926 33.706764 47.135601
v 9.866101 33.452892 47.280071
v -44.812473 54.842754 6.549184
v -26.417784 93.241943 25.808491
v -32.753761 80.777344 26.229382
v -32.753784 93.241943 26.229385
v -32.398739 80.777344 31.573839
v -26.062756 93.241943 31.152946
v -32.398758 93.241943 31.573841
v -26.062746 80.777344 31.152943
v -26.417774 80.777344 25.808485
v -29.952951 93.241959 -27.407959
v -36.288937 80.777359 -26.987066
v -36.288948 93.241974 -26.987064
v -29.647833 80.777344 -22.814856
v -29.952946 80.777359 -27.407963
v -35.983841 93.241959 -22.393955
v -35.983829 80.777344 -22.393959
v -34.182358 80.777344 4.724171
v -27.846380 93.241959 4.303274
v -34.182381 93.241959 4.724174
v -34.503536 80.777344 -0.110499
v -28.167547 93.241959 -0.531398
v -34.503548 93.241959 -0.110496
v -28.167540 80.777344 -0.531400
v 1.621349 80.777359 29.313879
v 8.953482 93.241959 28.826813
v 1.621341 93.241959 29.313881
v 1.266313 80.777359 23.969425
v 1.266307 93.241959 23.969427
v 8.598445 93.241959 23.482359
v 8.598454 80.777359 23.482355
v 8.953491 80.777359 28.826809
v 5.063277 93.241974 -29.734089
v -2.268854 80.777374 -29.247023
v -2.268863 93.241974 -29.247021
v 5.368405 80.777374 -25.140985
v 5.063285 80.777374 -29.734093
v -1.963736 80.777374 -24.653915
v 5.368397 93.241974 -25.140980
v -1.963744 93.241974 -24.653913
v 38.655277 93.242004 -0.114437
v 38.334126 80.777405 -4.949112
v 38.334099 93.242004 -4.949108
v 31.465124 93.241989 0.363205
v 38.655293 80.777405 -0.114440
v 31.143957 80.777390 -4.471468
v 31.143950 93.241989 -4.471465
v 40.438889 93.241989 26.735229
v 40.083878 80.777405 21.390772
v 40.083862 93.242004 21.390774
v 33.248753 80.777374 27.212870
v 33.248737 93.241989 27.212872
v 32.893726 80.777390 21.868416
v 32.893719 93.241989 21.868418
v 36.853809 93.242004 -27.232565
v 36.548717 80.777405 -31.825680
v 36.548702 93.242004 -31.825678
v 29.663654 93.241989 -26.754921
v 36.853825 80.777405 -27.232569
v 29.358551 80.777390 -31.348036
v 29.663662 80.777390 -26.754923
v 29.358543 93.242004 -31.348032
v -29.647840 93.241959 -22.814850
v 45.829853 186.631882 30.155636
v -46.934811 70.455399 -9.604810
v -27.846371 80.777344 4.303271
v 31.465132 80.777390 0.363203
v 40.438904 80.777390 26.735226
v -34.542324 80.104019 35.060234
v -47.748253 33.205284 12.205378
v -34.910069 33.205288 35.456490
v -12.105537 33.205303 49.072666
v -11.987437 80.104034 48.663284
v 37.405212 80.104065 36.434860
v 14.449611 33.205318 49.580017
v 37.700722 33.205334 36.741837
v 51.417675 33.205349 13.998087
v 39.086845 33.205353 -35.808182
v 51.511360 80.083862 -12.439228
v 51.925034 33.205360 -12.557062
v 38.779827 80.104095 -35.512691
v 16.343094 33.205341 -49.525120
v 16.224943 80.104080 -49.115730
v -10.109688 80.104065 -49.618870
v -33.463158 33.205307 -37.194290
v -33.167713 80.104050 -36.887299
v -46.770752 80.104034 -14.332425
v -47.180107 33.205292 -14.450551
v -34.384487 81.706329 -38.151474
v -48.977093 81.706314 12.423877
v 2.118737 102.139740 -0.226219
v -12.473861 81.706314 50.349129
v -35.806503 81.706299 36.277012
v 38.621986 81.706360 37.699036
v 14.768852 81.706329 50.869621
v 53.214600 81.706375 -12.876330
v 52.694126 81.706375 14.366390
v 16.711363 81.706360 -50.801575
v 40.043995 81.706375 -36.729462
v -10.531353 81.706345 -51.322067
v -48.456589 81.706314 -14.818849
v -48.977093 80.104034 12.423876
v -12.473861 80.104034 50.349129
v 14.768852 80.104050 50.869621
v 38.621986 80.104080 37.699036
v 53.214600 80.104095 -12.876331
v 16.711363 80.104080 -50.801575
v -10.531356 80.104065 -51.322063
v -34.384487 80.104050 -38.151474
v -48.456589 80.104034 -14.818850
v 40.043995 80.104095 -36.729462
v 51.008274 80.104095 13.879972
v 52.694126 80.104095 14.366389
v 14.347181 80.104050 49.166428
v -35.806503 80.104019 36.277012
v -47.334682 80.104034 12.102989
v 8.811125 33.205315 49.408272
v -6.393618 33.719521 49.308056
v -5.767692 33.205307 49.362019
v -10.212050 33.205322 -50.032482
vt 0.786357 0.005169
vt 0.579768 0.284582
vt 0.579430 0.005116
vt 0.100437 0.383934
vt 0.009483 0.283401
vt 0.191643 0.283521
vt 0.191169 0.004074
vt 0.397540 0.284265
vt 0.387139 0.582309
vt 0.392318 0.797101
vt 0.387139 0.797101
vt 0.699646 0.580936
vt 0.694455 0.796247
vt 0.694455 0.580936
vt 0.691899 0.799864
vt 0.543903 0.803669
vt 0.543903 0.799864
vt 0.406395 0.810739
vt 0.545054 0.805202
vt 0.544946 0.810887
vt 0.396952 0.797392
vt 0.544240 0.579978
vt 0.544240 0.797392
vt 0.544481 0.572188
vt 0.692015 0.577123
vt 0.544163 0.577956
vt 0.684390 0.562780
vt 0.543851 0.570392
vt 0.543851 0.562928
vt 0.396947 0.577123
vt 0.392989 0.571354
vt 0.691528 0.579978
vt 0.397735 0.799864
vt 0.683670 0.810887
vt 0.371570 0.789158
vt 0.383069 0.579981
vt 0.383069 0.795905
vt 0.714028 0.790149
vt 0.703157 0.581180
vt 0.714028 0.586572
vt 0.402372 0.562614
vt 0.393244 0.570078
vt 0.387410 0.441079
vt 0.199295 0.293454
vt 0.387410 0.293454
vt 0.398143 0.004832
vt 0.870941 0.910040
vt 0.863910 0.954391
vt 0.864006 0.910255
vt 0.890012 0.956038
vt 0.896393 0.840015
vt 0.897126 0.956621
vt 0.621597 0.957560
vt 0.614738 0.911843
vt 0.621989 0.911257
vt 0.636651 0.959282
vt 0.645193 0.909503
vt 0.644825 0.960546
vt 0.605363 0.957358
vt 0.612619 0.912390
vt 0.612599 0.958006
vt 0.602535 0.959400
vt 0.594263 0.909052
vt 0.602038 0.910102
vt 0.070005 0.481680
vt 0.012171 0.368212
vt 0.070005 0.367941
vt 0.152739 0.449736
vt 0.102938 0.402921
vt 0.153254 0.403447
vt 0.798272 0.234770
vt 0.818011 0.195723
vt 0.818011 0.234770
vt 0.836353 0.195723
vt 0.855987 0.234770
vt 0.836353 0.234770
vt 0.874435 0.234770
vt 0.855987 0.195723
vt 0.874435 0.195723
vt 0.899655 0.091865
vt 0.919315 0.052779
vt 0.919315 0.091865
vt 0.883791 0.052779
vt 0.899655 0.052779
vt 0.935077 0.091865
vt 0.935077 0.052779
vt 0.834601 0.241019
vt 0.854253 0.280092
vt 0.834601 0.280092
vt 0.818010 0.241019
vt 0.798255 0.280092
vt 0.818010 0.280092
vt 0.870947 0.241019
vt 0.870947 0.280092
vt 0.838070 0.148806
vt 0.860784 0.187809
vt 0.838070 0.187809
vt 0.819756 0.148806
vt 0.819756 0.187809
vt 0.796931 0.187809
vt 0.796931 0.148806
vt 0.879208 0.187809
vt 0.860784 0.148806
vt 0.879208 0.148806
vt 0.836058 0.141100
vt 0.858800 0.102061
vt 0.858800 0.141100
vt 0.820324 0.102061
vt 0.836058 0.102061
vt 0.797475 0.102061
vt 0.820324 0.141100
vt 0.797475 0.141100
vt 0.874641 0.141100
vt 0.819631 0.047617
vt 0.836199 0.008583
vt 0.836199 0.047617
vt 0.797230 0.047617
vt 0.819631 0.008584
vt 0.858493 0.008583
vt 0.875168 0.047617
vt 0.858493 0.047617
vt 0.903585 0.048473
vt 0.921903 0.009463
vt 0.921903 0.048473
vt 0.881199 0.009463
vt 0.881199 0.048473
vt 0.944179 0.009463
vt 0.962607 0.048473
vt 0.944179 0.048473
vt 0.819836 0.094023
vt 0.835574 0.054977
vt 0.835574 0.094023
vt 0.797426 0.094023
vt 0.819836 0.054977
vt 0.873721 0.094023
vt 0.857878 0.054977
vt 0.873721 0.054977
vt 0.857878 0.094023
vt 0.954839 0.091865
vt 0.009788 0.004014
vt 0.488429 0.384304
vt 0.785661 0.284613
vt 0.392318 0.582309
vt 0.699646 0.796247
vt 0.691899 0.803669
vt 0.397488 0.805202
vt 0.396952 0.579978
vt 0.695972 0.571354
vt 0.695949 0.569493
vt 0.691528 0.797392
vt 0.397735 0.803669
vt 0.692513 0.805354
vt 0.371570 0.585378
vt 0.703157 0.795544
vt 0.199295 0.441079
vt 0.870848 0.954274
vt 0.890017 0.840171
vt 0.614346 0.958145
vt 0.637083 0.910556
vt 0.605383 0.911295
vt 0.594276 0.960511
vt 0.011943 0.481680
vt 0.103712 0.449199
vt 0.798272 0.195723
vt 0.883791 0.091865
vt 0.854253 0.241019
vt 0.798255 0.241019
vt 0.874641 0.102061
vt 0.797230 0.008584
vt 0.875168 0.008583
vt 0.903585 0.009463
vt 0.962607 0.009463
vt 0.797426 0.054977
vt 0.954839 0.052779
vt 0.749570 0.992086
vt 0.663103 0.838537
vt 0.749699 0.838459
vt 0.834160 0.838374
vt 0.833914 0.992131
vt 0.991858 0.992230
vt 0.913458 0.838486
vt 0.992184 0.838605
vt 0.085576 0.839211
vt 0.005760 0.992292
vt 0.005309 0.839213
vt 0.256291 0.839167
vt 0.169948 0.992218
vt 0.169913 0.839206
vt 0.256296 0.992245
vt 0.340636 0.839107
vt 0.340554 0.992185
vt 0.420656 0.992167
vt 0.498542 0.838685
vt 0.498605 0.992309
vt 0.579031 0.992183
vt 0.578264 0.838647
vt 0.333322 0.563392
vt 0.318752 0.727638
vt 0.182504 0.635674
vt 0.167934 0.796621
vt 0.252597 0.781840
vt 0.031685 0.702178
vt 0.086815 0.767880
vt 0.046255 0.538770
vt 0.016722 0.618414
vt 0.197074 0.469787
vt 0.112411 0.484549
vt 0.278193 0.498528
vt 0.678534 0.825526
vt 0.757535 0.819200
vt 0.757535 0.825526
vt 0.838969 0.825526
vt 0.921615 0.819200
vt 0.921615 0.825526
vt 0.006416 0.825526
vt 0.085418 0.819200
vt 0.085418 0.825526
vt 0.159559 0.819200
vt 0.159559 0.825526
vt 0.233697 0.825526
vt 0.310266 0.819200
vt 0.310266 0.825526
vt 0.388052 0.825526
vt 0.463409 0.819200
vt 0.463409 0.825526
vt 0.536331 0.825526
vt 0.605612 0.825526
vt 0.536331 0.819200
vt 0.605612 0.819200
vt 0.325386 0.729713
vt 0.361027 0.647516
vt 0.330323 0.733249
vt 0.257276 0.787481
vt 0.169641 0.803456
vt 0.260239 0.792477
vt 0.169389 0.809675
vt 0.085881 0.773691
vt 0.022472 0.709046
vt 0.082464 0.778447
vt 0.005891 0.619527
vt 0.028073 0.706455
vt 0.106675 0.474585
vt 0.041113 0.537276
vt 0.036596 0.533793
vt 0.197526 0.457387
vt 0.109227 0.479489
vt 0.281033 0.493370
vt 0.197277 0.463586
vt 0.338842 0.560607
vt 0.284451 0.488615
vt 0.344443 0.558016
vt 0.355628 0.646574
vt 0.011857 0.619695
vt 0.896447 0.838280
vt 0.852910 0.956514
vt 0.890097 0.831341
vt 0.860774 0.833203
vt 0.860617 0.831457
vt 0.853637 0.839885
vt 0.859752 0.955956
vt 0.860725 0.839435
vt 0.890075 0.833171
vt 0.889901 0.839448
vt 0.853673 0.838349
vt 0.663615 0.992106
vt 0.913889 0.992169
vt 0.085696 0.992290
vt 0.420719 0.839088
vt 0.348286 0.647155
vt 0.678534 0.819200
vt 0.838969 0.819200
vt 0.006416 0.819200
vt 0.233697 0.819200
vt 0.388052 0.819200
vt 0.860672 0.839817
vn -0.0663 -0.0011 -0.9978
vn -0.9978 -0.0000 0.0663
vn 0.0663 -0.0011 0.9978
vn -0.0663 0.0000 -0.9978
vn 0.0663 0.0000 0.9978
vn 0.9978 0.0000 -0.0663
vn 0.0492 -0.6696 0.7411
vn -0.0495 0.6659 -0.7444
vn -0.0492 -0.6696 -0.7411
vn 0.0495 0.6659 0.7444
vn 0.0524 -0.6127 0.7886
vn -0.0524 -0.6127 -0.7886
vn 0.1515 -0.6624 0.7337
vn 0.0000 -1.0000 -0.0000
vn 0.9978 0.0027 -0.0663
vn 0.0009 -0.9989 0.0476
vn -0.9976 0.0001 -0.0691
vn 0.0110 0.9999 -0.0082
vn 0.0211 -0.0162 -0.9996
vn -0.0109 -0.9999 -0.0001
vn -0.0212 0.0024 0.9998
vn -0.0088 0.0100 0.9999
vn -0.9997 0.0106 -0.0212
vn -0.9978 0.0027 0.0663
vn -0.0531 -0.6624 0.7473
vn 0.0531 -0.6624 -0.7473
vn -0.1515 -0.6624 -0.7337
vn -0.0794 0.0127 0.9968
vn -0.0100 0.0105 0.9999
vn -0.9997 0.0107 -0.0213
vn -0.7191 0.0099 0.6948
vn -0.9884 0.0097 0.1519
vn -0.7188 0.0115 0.6951
vn -0.2079 0.0239 0.9779
vn -0.1960 0.0114 0.9805
vn 0.6934 0.0091 0.7205
vn 0.1496 -0.0044 0.9887
vn 0.9608 0.0091 0.2772
vn 0.7205 0.0091 -0.6934
vn 0.9707 0.0091 -0.2402
vn 0.9706 0.0092 -0.2404
vn 0.2772 0.0091 -0.9608
vn -0.2403 0.0091 -0.9707
vn -0.6934 0.0091 -0.7205
vn -0.9814 0.0085 -0.1918
vn -0.9814 0.0091 -0.1917
vn -0.5485 0.5984 -0.5840
vn -0.7768 0.5997 0.1923
vn -0.0000 1.0000 0.0000
vn -0.2832 0.5642 0.7756
vn -0.6106 0.5222 0.5954
vn 0.5295 0.5644 0.6333
vn 0.2106 0.5208 0.8273
vn 0.8132 0.5644 -0.1418
vn 0.8209 0.5222 0.2312
vn 0.2838 0.5644 -0.7752
vn 0.6106 0.5222 -0.5954
vn -0.2106 0.5208 -0.8273
vn -0.8189 0.5222 -0.2381
vn -0.9707 0.0000 0.2403
vn -0.2772 0.0000 0.9608
vn 0.2403 0.0000 0.9707
vn 0.6935 -0.0000 0.7205
vn 0.9707 -0.0000 -0.2403
vn 0.2772 -0.0000 -0.9608
vn -0.2403 -0.0000 -0.9707
vn -0.6935 -0.0000 -0.7205
vn 0.0108 -0.9999 -0.0030
vn 0.0002 -1.0000 -0.0001
vn -0.0001 -1.0000 0.0004
vn 0.0002 -1.0000 0.0004
vn 0.0109 -0.9999 -0.0031
vn -0.0206 -0.0747 0.9970
vn 0.1451 -0.0050 0.9894
vn -0.0232 -0.0184 0.9996
vn -0.0242 0.0099 0.9997
vn -0.0310 0.0353 0.9989
vn -0.0234 0.1003 0.9947
vn 0.7040 0.7079 0.0570
vn 0.9976 0.0013 0.0698
vn 0.9976 0.0013 0.0690
vn 0.7026 0.7097 0.0517
vn 0.0153 0.9925 -0.1211
vn 0.0168 0.9912 -0.1314
vn -0.9997 0.0087 -0.0209
vn -0.9997 0.0087 -0.0220
vn -0.9881 0.0087 0.1534
vn -0.9997 0.0087 -0.0250
vn -0.9998 0.0090 -0.0163
vn 0.1495 0.0078 0.9887
vn -0.0234 0.0041 0.9997
vn 0.9607 0.0091 0.2773
vn -0.9608 -0.0000 -0.2772
vn -0.7205 0.0000 0.6935
vn 0.9608 -0.0000 0.2772
vn 0.7205 0.0000 -0.6935
vn -0.0171 -0.0037 0.9998
usemtl blinn1SG.001
s off
f 1/1/1 2/2/1 3/3/1
f 4/4/2 5/5/2 6/6/2
f 7/7/3 8/8/3 6/6/3
f 9/9/4 10/10/4 11/11/4
f 12/12/5 13/13/5 14/14/5
f 13/15/6 15/16/6 16/17/6
f 2/18/7 15/19/7 17/20/7
f 10/21/8 18/22/8 16/23/8
f 19/24/2 14/25/2 18/26/2
f 6/27/9 19/28/9 4/29/9
f 19/24/2 20/30/2 9/31/2
f 14/32/10 16/23/10 18/22/10
f 15/16/6 10/33/6 16/17/6
f 15/19/9 8/34/9 17/20/9
f 2/35/11 9/36/11 11/37/11
f 8/38/12 12/39/12 6/40/12
f 5/41/13 19/28/13 9/42/13
f 21/43/14 1/44/14 3/45/14
f 2/2/15 21/46/15 3/3/15
f 22/47/16 23/48/16 24/49/16
f 25/50/17 26/51/17 23/52/17
f 27/53/18 28/54/18 29/55/18
f 30/56/19 27/57/19 31/58/19
f 31/59/20 32/60/20 30/61/20
f 32/62/21 29/63/21 28/64/21
f 25/65/22 33/66/22 34/67/22
f 30/68/23 28/69/23 35/70/23
f 36/71/4 37/72/4 38/73/4
f 39/74/5 40/75/5 41/76/5
f 41/76/2 37/72/2 39/74/2
f 36/77/6 42/78/6 43/79/6
f 44/80/4 45/81/4 46/82/4
f 44/80/6 47/83/6 48/84/6
f 49/85/2 45/81/2 50/86/2
f 51/87/5 52/88/5 53/89/5
f 53/89/2 54/90/2 51/87/2
f 55/91/4 54/90/4 56/92/4
f 52/88/6 57/93/6 55/94/6
f 58/95/5 59/96/5 60/97/5
f 61/98/2 60/97/2 62/99/2
f 61/98/4 63/100/4 64/101/4
f 63/102/6 65/103/6 64/104/6
f 66/105/4 67/106/4 68/107/4
f 66/105/6 69/108/6 70/109/6
f 71/110/5 72/111/5 73/112/5
f 67/106/2 73/113/2 68/107/2
f 74/114/6 75/115/6 76/116/6
f 77/117/5 78/118/5 74/114/5
f 79/119/2 77/120/2 80/121/2
f 76/116/4 79/119/4 80/121/4
f 81/122/6 82/123/6 83/124/6
f 84/125/5 81/122/5 85/126/5
f 86/127/2 85/128/2 87/129/2
f 83/124/4 86/127/4 87/129/4
f 88/130/6 89/131/6 90/132/6
f 91/133/5 92/134/5 88/130/5
f 91/135/2 93/136/2 94/137/2
f 90/132/4 93/136/4 95/138/4
f 50/86/5 96/139/5 49/85/5
f 7/7/24 5/5/24 1/140/24
f 2/2/6 17/141/6 8/8/6
f 1/1/1 5/142/1 2/2/1
f 7/7/3 21/46/3 8/8/3
f 9/9/4 20/143/4 10/10/4
f 12/12/5 97/144/5 13/13/5
f 13/15/6 97/145/6 15/16/6
f 2/18/25 11/146/25 15/19/25
f 10/21/8 20/147/8 18/22/8
f 19/24/2 12/148/2 14/25/2
f 6/27/26 12/149/26 19/28/26
f 19/24/2 18/26/2 20/30/2
f 14/32/10 13/150/10 16/23/10
f 15/16/6 11/151/6 10/33/6
f 15/19/27 97/152/27 8/34/27
f 2/35/11 5/153/11 9/36/11
f 8/38/12 97/154/12 12/39/12
f 5/41/7 4/29/7 19/28/7
f 21/43/14 7/155/14 1/44/14
f 2/2/15 8/8/15 21/46/15
f 22/47/16 25/156/16 23/48/16
f 25/50/17 34/157/17 26/51/17
f 27/53/18 35/158/18 28/54/18
f 30/56/19 35/159/19 27/57/19
f 31/59/20 98/160/20 32/60/20
f 32/62/28 98/161/28 29/63/28
f 25/65/29 22/162/29 33/66/29
f 30/68/30 32/163/30 28/69/30
f 36/71/4 43/164/4 37/72/4
f 39/74/5 42/78/5 40/75/5
f 41/76/2 38/73/2 37/72/2
f 36/77/6 40/75/6 42/78/6
f 44/80/4 48/84/4 45/81/4
f 44/80/6 96/165/6 47/83/6
f 49/85/2 46/82/2 45/81/2
f 51/87/5 99/166/5 52/88/5
f 53/89/2 56/92/2 54/90/2
f 55/91/4 57/167/4 54/90/4
f 52/88/6 99/166/6 57/93/6
f 58/95/5 65/103/5 59/96/5
f 61/98/2 58/95/2 60/97/2
f 61/98/4 62/99/4 63/100/4
f 63/102/6 59/96/6 65/103/6
f 66/105/4 70/109/4 67/106/4
f 66/105/6 72/111/6 69/108/6
f 71/110/5 69/108/5 72/111/5
f 67/106/2 71/168/2 73/113/2
f 74/114/6 78/118/6 75/115/6
f 77/117/5 100/169/5 78/118/5
f 79/119/2 100/170/2 77/120/2
f 76/116/4 75/115/4 79/119/4
f 81/122/6 101/171/6 82/123/6
f 84/125/5 101/171/5 81/122/5
f 86/127/2 84/172/2 85/128/2
f 83/124/4 82/123/4 86/127/4
f 88/130/6 92/134/6 89/131/6
f 91/133/5 94/173/5 92/134/5
f 91/135/2 95/138/2 93/136/2
f 90/132/4 89/131/4 93/136/4
f 50/86/5 47/174/5 96/139/5
f 7/7/24 6/6/24 5/5/24
s 1
f 102/175/31 103/176/32 104/177/33
f 102/175/31 105/178/34 106/179/35
f 107/180/36 108/181/37 109/182/36
f 110/183/38 107/184/36 109/185/36
f 111/186/39 112/187/40 113/188/41
f 114/189/39 115/190/42 116/191/42
f 115/190/42 117/192/43 116/191/42
f 117/192/43 118/193/44 119/194/44
f 120/195/45 118/193/44 121/196/46
f 122/197/47 123/198/48 124/199/49
f 125/200/50 123/198/48 126/201/51
f 127/202/52 125/200/50 128/203/53
f 129/204/54 127/202/52 130/205/55
f 131/206/56 129/204/54 132/207/57
f 122/197/47 131/206/56 133/208/58
f 134/209/59 135/210/60 123/211/48
f 135/210/60 126/212/51 123/211/48
f 126/212/51 136/213/61 125/214/50
f 125/215/50 137/216/62 128/217/53
f 128/217/53 138/218/63 127/219/52
f 138/218/63 130/220/55 127/219/52
f 130/220/55 139/221/64 129/222/54
f 139/221/64 132/223/57 129/222/54
f 132/223/57 140/224/65 131/225/56
f 140/224/65 133/226/58 131/225/56
f 122/227/47 141/228/66 142/229/67
f 142/229/67 134/209/59 122/227/47
f 120/230/14 135/231/14 143/232/14
f 143/232/14 119/233/14 120/230/14
f 117/234/14 142/235/14 141/236/14
f 141/236/14 116/237/14 117/234/14
f 144/238/14 116/237/14 140/239/14
f 139/240/68 114/241/69 144/238/14
f 138/242/14 145/243/70 146/244/71
f 137/245/14 107/246/14 138/242/14
f 137/245/14 106/247/14 147/248/14
f 102/249/14 136/250/14 148/251/14
f 148/251/14 149/252/14 102/249/14
f 146/244/71 112/253/72 139/240/68
f 112/187/40 110/183/38 113/188/41
f 150/254/73 108/181/74 26/51/75
f 105/178/34 24/255/76 106/179/35
f 150/256/73 151/257/77 152/258/78
f 151/259/79 22/260/80 24/255/81
f 33/261/82 26/262/83 34/263/84
f 105/178/34 152/264/78 151/259/77
f 121/196/46 27/57/85 29/63/86
f 27/57/85 149/265/87 31/58/88
f 120/195/45 29/63/86 98/161/89
f 31/58/88 120/195/45 98/161/89
f 24/255/76 147/266/90 106/179/35
f 23/52/91 108/181/37 147/266/90
f 102/175/31 149/265/87 103/176/32
f 102/175/31 104/177/33 105/178/34
f 107/180/36 147/266/90 108/181/37
f 110/183/38 145/267/92 107/184/36
f 111/186/39 114/189/39 112/187/40
f 114/189/39 111/186/39 115/190/42
f 115/190/42 153/268/43 117/192/43
f 117/192/43 153/268/43 118/193/44
f 120/195/45 119/194/44 118/193/44
f 122/197/47 134/269/59 123/198/48
f 125/200/50 124/199/49 123/198/48
f 127/202/52 124/199/49 125/200/50
f 129/204/54 124/199/49 127/202/52
f 131/206/56 124/199/49 129/204/54
f 122/197/47 124/199/49 131/206/56
f 134/209/59 143/270/93 135/210/60
f 135/210/60 148/271/94 126/212/51
f 126/212/51 148/271/94 136/213/61
f 125/215/50 136/272/61 137/216/62
f 128/217/53 137/216/62 138/218/63
f 138/218/63 146/273/95 130/220/55
f 130/220/55 146/273/95 139/221/64
f 139/221/64 144/274/96 132/223/57
f 132/223/57 144/274/96 140/224/65
f 140/224/65 141/228/66 133/226/58
f 122/227/47 133/226/58 141/228/66
f 142/229/67 143/270/93 134/209/59
f 120/230/14 149/252/14 135/231/14
f 143/232/14 142/235/14 119/233/14
f 117/234/14 119/233/14 142/235/14
f 141/236/14 140/239/14 116/237/14
f 144/238/14 114/241/69 116/237/14
f 139/240/68 112/253/72 114/241/69
f 138/242/14 107/246/14 145/243/70
f 137/245/14 147/248/14 107/246/14
f 137/245/14 136/250/14 106/247/14
f 102/249/14 106/247/14 136/250/14
f 148/251/14 135/231/14 149/252/14
f 146/244/71 145/243/70 112/253/72
f 112/187/40 145/267/92 110/183/38
f 105/178/34 151/259/77 24/255/76
f 150/256/73 26/262/75 151/257/77
f 151/259/79 33/275/82 22/260/80
f 33/261/82 151/257/79 26/262/83
f 121/196/46 103/176/32 27/57/85
f 27/57/85 103/176/32 149/265/87
f 120/195/45 121/196/46 29/63/86
f 31/58/88 149/265/87 120/195/45
f 24/255/76 23/52/91 147/266/90
f 23/52/91 26/51/97 108/181/37
