# Blender v2.81 (sub 16) OBJ File: ''
# www.blender.org
mtllib MolinoNew.mtl
o windmill
v -30.938040 59.554245 36.554447
v -31.044487 155.994476 -41.501995
v -30.938028 59.554291 -41.765285
v 0.024756 190.461060 36.291264
v -31.044500 155.994476 36.291256
v 31.094019 155.994476 36.291271
v 30.987553 59.554245 36.554466
v 31.094034 155.994476 -41.501980
v -33.077545 153.371750 38.519470
v -33.077518 155.141052 -43.730259
v -33.077518 153.371750 -43.730259
v 33.127052 153.371750 38.519527
v 33.127083 155.141052 -43.730247
v 33.127052 155.141052 38.519527
v 0.024748 190.461044 -43.730247
v 0.024769 192.230362 -43.730247
v 0.024769 190.461060 -41.501976
v 0.024756 192.230362 38.519527
v 0.024756 190.461060 38.519527
v -33.077545 155.141052 38.519516
v 30.987564 59.554291 -41.765270
v 46.243118 36.024765 9.348672
v 49.633469 36.151150 -6.467469
v 48.401642 36.128193 9.642906
v 47.474945 36.047718 -6.761704
v 49.988571 0.483505 -6.416255
v 3.334164 21.611214 47.769699
v -12.289100 21.447912 43.757877
v -12.519347 21.476486 46.379559
v 3.327454 37.168625 44.960793
v 3.097206 37.197212 47.582478
v -12.311273 37.166714 43.586716
v 46.621174 0.446651 9.307643
v 47.830051 0.192776 -6.710483
v 3.564413 21.582640 45.148026
v 24.000635 59.981838 28.070370
v 24.000628 47.517227 34.420315
v 24.000628 59.981838 34.420334
v 29.356863 47.517227 34.420326
v 29.356871 59.981838 28.070375
v 29.356863 59.981838 34.420341
v 29.356869 47.517227 28.070368
v 24.000633 47.517227 28.070362
v -29.333105 59.981838 28.070354
v -29.333113 47.517227 34.420307
v -29.333113 59.981842 34.420315
v -24.729876 47.517227 28.070358
v -29.333107 47.517227 28.070351
v -24.729881 59.981838 34.420330
v -24.729881 47.517227 34.420319
v 2.448018 47.517227 34.420315
v 2.448019 59.981838 28.070368
v 2.448018 59.981838 34.420334
v -2.397309 47.517227 34.420322
v -2.397308 59.981838 28.070368
v -2.397309 59.981838 34.420334
v -2.397308 47.517227 28.070362
v 29.356869 47.517239 0.325255
v 29.356876 59.981850 -7.023040
v 29.356869 59.981850 0.325261
v 24.000635 47.517239 0.325257
v 24.000635 59.981850 0.325261
v 24.000643 59.981850 -7.023037
v 24.000641 47.517239 -7.023043
v 29.356874 47.517239 -7.023047
v -29.333097 59.981850 -7.023053
v -29.333105 47.517239 0.325240
v -29.333105 59.981850 0.325247
v -24.729868 47.517239 -7.023058
v -29.333099 47.517239 -7.023059
v -24.729874 47.517239 0.325244
v -24.729864 59.981850 -7.023051
v -24.729874 59.981850 0.325250
v 2.448033 59.981873 -38.577866
v -2.397295 47.517265 -38.577877
v -2.397295 59.981873 -38.577854
v 2.448031 59.981865 -31.371862
v 2.448033 47.517265 -38.577877
v -2.397296 47.517254 -31.371862
v -2.397296 59.981865 -31.371857
v 29.356876 59.981873 -38.577843
v 24.000643 47.517265 -38.577866
v 24.000643 59.981873 -38.577850
v 29.356876 47.517254 -31.371857
v 29.356876 59.981865 -31.371845
v 24.000643 47.517254 -31.371864
v 24.000643 59.981865 -31.371859
v -24.729864 59.981873 -38.577862
v -29.333099 47.517265 -38.577888
v -29.333099 59.981873 -38.577877
v -24.729864 59.981861 -31.371859
v -24.729864 47.517265 -38.577873
v -29.333099 47.517254 -31.371874
v -24.729864 47.517254 -31.371864
v -29.333099 59.981865 -31.371868
v -24.729874 59.981838 28.070364
v 33.127083 153.371750 -43.730247
v -12.694736 37.195278 46.194939
v 2.448019 47.517227 28.070362
v 2.448031 47.517254 -31.371868
v 29.356876 47.517265 -38.577858
v 32.693504 46.843910 36.790287
v 9.013576 -0.054829 48.452267
v 33.064518 -0.054823 37.183498
v 48.162331 -0.054812 15.331656
v 47.761669 46.843922 15.186672
v 38.834091 46.843941 -34.907906
v 50.428753 -0.054799 -11.131462
v 39.159988 -0.054787 -35.182407
v 17.375475 -0.054780 -50.376747
v -33.138599 -0.054784 -41.374401
v -8.997497 46.823730 -52.222610
v -9.087644 -0.054778 -52.643177
v -32.864117 46.843956 -41.048481
v -48.332924 -0.054795 -19.589886
v -47.932274 46.843952 -19.444868
v -50.179874 46.843929 6.798499
v -39.330582 -0.054820 30.924171
v -39.004688 46.843922 30.649717
v -17.401079 46.843910 45.717873
v -17.546072 -0.054828 46.118504
v -40.346737 48.446201 31.780020
v 9.150131 48.446190 49.692883
v -0.085300 68.879616 -2.129085
v 49.411568 48.446201 15.783771
v 33.823811 48.446190 38.132343
v 40.176140 48.446236 -36.038208
v 51.736675 48.446213 -11.364529
v -9.320740 48.446243 -53.951077
v 17.827570 48.446243 -51.625984
v -49.582169 48.446232 -20.041962
v -33.994415 48.446243 -42.390522
v -51.907276 48.446213 7.106342
v -17.998178 48.446190 47.367760
v 9.150131 46.843910 49.692883
v 49.411568 46.843922 15.783771
v 51.736675 46.843933 -11.364529
v 40.176140 46.843956 -36.038208
v -9.320740 46.843956 -53.951077
v -49.582169 46.843952 -20.041962
v -51.907272 46.843933 7.106345
v -40.346737 46.843922 31.780020
v -17.998178 46.843910 47.367760
v -33.994415 46.843956 -42.390522
v 17.230476 46.843964 -49.976082
v 17.827570 46.843964 -51.625984
v 50.009277 46.843933 -11.056681
v 33.823811 46.843910 38.132343
v 8.938817 46.843910 48.032814
v 49.883644 -0.054802 -5.516761
v 48.775814 0.459404 9.647902
v 48.871147 -0.054808 9.026929
v -50.599354 -0.054808 6.873229
vt 0.786357 0.005169
vt 0.579768 0.284582
vt 0.579430 0.005116
vt 0.100437 0.383934
vt 0.009483 0.283401
vt 0.191643 0.283521
vt 0.191169 0.004074
vt 0.397540 0.284265
vt 0.387139 0.582309
vt 0.392318 0.797101
vt 0.387139 0.797101
vt 0.699646 0.580936
vt 0.694455 0.796247
vt 0.694455 0.580936
vt 0.691899 0.799864
vt 0.543903 0.803669
vt 0.543903 0.799864
vt 0.406395 0.810739
vt 0.545054 0.805202
vt 0.544946 0.810887
vt 0.396952 0.797392
vt 0.544240 0.579978
vt 0.544240 0.797392
vt 0.544481 0.572188
vt 0.692015 0.577123
vt 0.544163 0.577956
vt 0.684390 0.562780
vt 0.543851 0.570392
vt 0.543851 0.562928
vt 0.396947 0.577123
vt 0.392989 0.571354
vt 0.691528 0.579978
vt 0.397735 0.799864
vt 0.683670 0.810887
vt 0.371570 0.789158
vt 0.383069 0.579981
vt 0.383069 0.795905
vt 0.714028 0.790149
vt 0.703157 0.581180
vt 0.714028 0.586572
vt 0.402372 0.562614
vt 0.393244 0.570078
vt 0.387410 0.441079
vt 0.199295 0.293454
vt 0.387410 0.293454
vt 0.398143 0.004832
vt 0.870941 0.910040
vt 0.863910 0.954391
vt 0.864006 0.910255
vt 0.890012 0.956038
vt 0.896393 0.840015
vt 0.897126 0.956621
vt 0.621597 0.957560
vt 0.614738 0.911843
vt 0.621989 0.911257
vt 0.636651 0.959282
vt 0.645193 0.909503
vt 0.644825 0.960546
vt 0.605363 0.957358
vt 0.612619 0.912390
vt 0.612599 0.958006
vt 0.602535 0.959400
vt 0.594263 0.909052
vt 0.602038 0.910102
vt 0.070005 0.481680
vt 0.012171 0.368212
vt 0.070005 0.367941
vt 0.152739 0.449736
vt 0.102938 0.402921
vt 0.153254 0.403447
vt 0.798272 0.234770
vt 0.818011 0.195723
vt 0.818011 0.234770
vt 0.836353 0.195723
vt 0.855987 0.234770
vt 0.836353 0.234770
vt 0.874435 0.234770
vt 0.855987 0.195723
vt 0.874435 0.195723
vt 0.899655 0.091865
vt 0.919315 0.052779
vt 0.919315 0.091865
vt 0.883791 0.052779
vt 0.899655 0.052779
vt 0.935077 0.091865
vt 0.935077 0.052779
vt 0.834601 0.241019
vt 0.854253 0.280092
vt 0.834601 0.280092
vt 0.818010 0.241019
vt 0.798255 0.280092
vt 0.818010 0.280092
vt 0.870947 0.241019
vt 0.870947 0.280092
vt 0.838070 0.148806
vt 0.860784 0.187809
vt 0.838070 0.187809
vt 0.819756 0.148806
vt 0.819756 0.187809
vt 0.796931 0.187809
vt 0.796931 0.148806
vt 0.879208 0.187809
vt 0.860784 0.148806
vt 0.879208 0.148806
vt 0.836058 0.141100
vt 0.858800 0.102061
vt 0.858800 0.141100
vt 0.820324 0.102061
vt 0.836058 0.102061
vt 0.797475 0.102061
vt 0.820324 0.141100
vt 0.797475 0.141100
vt 0.874641 0.141100
vt 0.819631 0.047617
vt 0.836199 0.008583
vt 0.836199 0.047617
vt 0.797230 0.047617
vt 0.819631 0.008584
vt 0.858493 0.008583
vt 0.875168 0.047617
vt 0.858493 0.047617
vt 0.903585 0.048473
vt 0.921903 0.009463
vt 0.921903 0.048473
vt 0.881199 0.009463
vt 0.881199 0.048473
vt 0.944179 0.009463
vt 0.962607 0.048473
vt 0.944179 0.048473
vt 0.819836 0.094023
vt 0.835574 0.054977
vt 0.835574 0.094023
vt 0.797426 0.094023
vt 0.819836 0.054977
vt 0.873721 0.094023
vt 0.857878 0.054977
vt 0.873721 0.054977
vt 0.857878 0.094023
vt 0.954839 0.091865
vt 0.009788 0.004014
vt 0.488429 0.384304
vt 0.785661 0.284613
vt 0.392318 0.582309
vt 0.699646 0.796247
vt 0.691899 0.803669
vt 0.397488 0.805202
vt 0.396952 0.579978
vt 0.695972 0.571354
vt 0.695949 0.569493
vt 0.691528 0.797392
vt 0.397735 0.803669
vt 0.692513 0.805354
vt 0.371570 0.585378
vt 0.703157 0.795544
vt 0.199295 0.441079
vt 0.870848 0.954274
vt 0.890017 0.840171
vt 0.614346 0.958145
vt 0.637083 0.910556
vt 0.605383 0.911295
vt 0.594276 0.960511
vt 0.011943 0.481680
vt 0.103712 0.449199
vt 0.798272 0.195723
vt 0.883791 0.091865
vt 0.854253 0.241019
vt 0.798255 0.241019
vt 0.874641 0.102061
vt 0.797230 0.008584
vt 0.875168 0.008583
vt 0.903585 0.009463
vt 0.962607 0.009463
vt 0.797426 0.054977
vt 0.954839 0.052779
vt 0.749570 0.992086
vt 0.663103 0.838537
vt 0.749699 0.838459
vt 0.834160 0.838374
vt 0.833914 0.992131
vt 0.991858 0.992230
vt 0.913458 0.838486
vt 0.992184 0.838605
vt 0.085576 0.839211
vt 0.005760 0.992292
vt 0.005309 0.839213
vt 0.256291 0.839167
vt 0.169948 0.992218
vt 0.169913 0.839206
vt 0.256296 0.992245
vt 0.340636 0.839107
vt 0.340554 0.992185
vt 0.420656 0.992167
vt 0.498542 0.838685
vt 0.498605 0.992309
vt 0.579031 0.992183
vt 0.578264 0.838647
vt 0.333322 0.563392
vt 0.318752 0.727638
vt 0.182504 0.635674
vt 0.167934 0.796621
vt 0.252597 0.781840
vt 0.031685 0.702178
vt 0.086815 0.767880
vt 0.046255 0.538770
vt 0.016722 0.618414
vt 0.197074 0.469787
vt 0.112411 0.484549
vt 0.278193 0.498528
vt 0.678534 0.825526
vt 0.757535 0.819200
vt 0.757535 0.825526
vt 0.838969 0.825526
vt 0.921615 0.819200
vt 0.921615 0.825526
vt 0.006416 0.825526
vt 0.085418 0.819200
vt 0.085418 0.825526
vt 0.159559 0.819200
vt 0.159559 0.825526
vt 0.233697 0.825526
vt 0.310266 0.819200
vt 0.310266 0.825526
vt 0.388052 0.825526
vt 0.463409 0.819200
vt 0.463409 0.825526
vt 0.536331 0.825526
vt 0.605612 0.825526
vt 0.536331 0.819200
vt 0.605612 0.819200
vt 0.325386 0.729713
vt 0.361027 0.647516
vt 0.330323 0.733249
vt 0.257276 0.787481
vt 0.169641 0.803456
vt 0.260239 0.792477
vt 0.169389 0.809675
vt 0.085881 0.773691
vt 0.022472 0.709046
vt 0.082464 0.778447
vt 0.005891 0.619527
vt 0.028073 0.706455
vt 0.106675 0.474585
vt 0.041113 0.537276
vt 0.036596 0.533793
vt 0.197526 0.457387
vt 0.109227 0.479489
vt 0.281033 0.493370
vt 0.197277 0.463586
vt 0.338842 0.560607
vt 0.284451 0.488615
vt 0.344443 0.558016
vt 0.355628 0.646574
vt 0.011857 0.619695
vt 0.896447 0.838280
vt 0.852910 0.956514
vt 0.890097 0.831341
vt 0.860774 0.833203
vt 0.860617 0.831457
vt 0.853637 0.839885
vt 0.859752 0.955956
vt 0.860725 0.839435
vt 0.890075 0.833171
vt 0.889901 0.839448
vt 0.853673 0.838349
vt 0.663615 0.992106
vt 0.913889 0.992169
vt 0.085696 0.992290
vt 0.420719 0.839088
vt 0.348286 0.647155
vt 0.678534 0.819200
vt 0.838969 0.819200
vt 0.006416 0.819200
vt 0.233697 0.819200
vt 0.388052 0.819200
vt 0.860672 0.839817
vn -1.0000 -0.0011 -0.0000
vn -0.0000 -0.0000 1.0000
vn 1.0000 -0.0011 0.0000
vn -1.0000 0.0000 -0.0000
vn 1.0000 0.0000 0.0000
vn 0.0000 0.0000 -1.0000
vn 0.7428 -0.6696 -0.0000
vn -0.7461 0.6659 -0.0000
vn -0.7428 -0.6696 0.0000
vn 0.7461 0.6659 0.0000
vn 0.7904 -0.6126 0.0000
vn -0.7904 -0.6126 0.0000
vn 0.7421 -0.6624 -0.1025
vn 0.0000 -1.0000 -0.0000
vn 0.0000 0.0027 -1.0000
vn 0.0476 -0.9989 0.0022
vn -0.1351 0.0001 0.9908
vn -0.0075 0.9999 -0.0116
vn -0.9961 -0.0162 -0.0873
vn -0.0008 -0.9999 0.0108
vn 0.9962 0.0024 0.0875
vn 0.9971 0.0100 0.0751
vn -0.0874 0.0106 0.9961
vn -0.0000 0.0027 1.0000
vn 0.7421 -0.6624 0.1025
vn -0.7421 -0.6624 -0.1025
vn -0.7421 -0.6624 0.1025
vn 0.7904 -0.6127 0.0000
vn -0.7904 -0.6127 -0.0000
vn 0.9893 0.0127 0.1453
vn 0.9970 0.0105 0.0762
vn -0.0875 0.0107 0.9961
vn 0.6456 0.0099 0.7636
vn 0.0861 0.0097 0.9962
vn 0.6459 0.0115 0.7633
vn 0.9619 0.0239 0.2722
vn 0.9654 0.0114 0.2606
vn 0.7648 0.0091 -0.6442
vn 0.9965 -0.0044 -0.0837
vn 0.3403 0.0091 -0.9403
vn -0.6441 0.0091 -0.7649
vn -0.1753 0.0091 -0.9845
vn -0.1755 0.0092 -0.9844
vn -0.9403 0.0091 -0.3403
vn -0.9844 0.0091 0.1754
vn -0.7648 0.0091 0.6442
vn -0.2564 0.0085 0.9665
vn -0.2563 0.0091 0.9665
vn -0.6191 0.5984 0.5086
vn 0.1404 0.5997 0.7878
vn 0.0000 1.0000 0.0000
vn 0.7551 0.5642 0.3340
vn 0.5536 0.5222 0.6487
vn 0.6671 0.5644 -0.4864
vn 0.8395 0.5208 -0.1553
vn -0.0876 0.5644 -0.8209
vn 0.2851 0.5222 -0.8038
vn -0.7547 0.5644 -0.3346
vn -0.5536 0.5222 -0.6487
vn -0.8395 0.5208 0.1553
vn -0.2919 0.5222 0.8013
vn 0.1755 0.0000 0.9845
vn 0.9403 0.0000 0.3403
vn 0.9845 0.0000 -0.1754
vn 0.7649 0.0000 -0.6442
vn -0.1755 0.0000 -0.9845
vn -0.9403 -0.0000 -0.3403
vn -0.9845 -0.0000 0.1755
vn -0.7649 0.0000 0.6442
vn -0.0023 -0.9999 -0.0110
vn -0.0001 -1.0000 -0.0002
vn 0.0004 -1.0000 0.0001
vn 0.0004 -1.0000 -0.0002
vn -0.0024 -0.9999 -0.0110
vn 0.9934 -0.0747 0.0866
vn 0.9968 -0.0050 -0.0792
vn 0.9958 -0.0184 0.0894
vn 0.9958 0.0099 0.0905
vn 0.9946 0.0353 0.0971
vn 0.9909 0.1003 0.0893
vn 0.1035 0.7079 -0.6987
vn 0.1358 0.0013 -0.9907
vn 0.1350 0.0013 -0.9908
vn 0.0982 0.7097 -0.6976
vn -0.1198 0.9925 -0.0233
vn -0.1300 0.9912 -0.0255
vn -0.0871 0.0087 0.9962
vn -0.0882 0.0087 0.9961
vn 0.0876 0.0087 0.9961
vn -0.0912 0.0087 0.9958
vn -0.0826 0.0090 0.9965
vn 0.9965 0.0078 -0.0836
vn 0.9960 0.0041 0.0895
vn -0.3403 0.0000 0.9403
vn 0.6442 0.0000 0.7649
vn 0.3403 0.0000 -0.9403
vn -0.6442 0.0000 -0.7649
vn 0.9965 -0.0037 0.0833
usemtl blinn1SG
s off
f 1/1/1 2/2/1 3/3/1
f 4/4/2 5/5/2 6/6/2
f 7/7/3 8/8/3 6/6/3
f 9/9/4 10/10/4 11/11/4
f 12/12/5 13/13/5 14/14/5
f 13/15/6 15/16/6 16/17/6
f 2/18/7 15/19/7 17/20/7
f 10/21/8 18/22/8 16/23/8
f 19/24/2 14/25/2 18/26/2
f 6/27/9 19/28/9 4/29/9
f 19/24/2 20/30/2 9/31/2
f 14/32/10 16/23/10 18/22/10
f 15/16/6 10/33/6 16/17/6
f 15/19/9 8/34/9 17/20/9
f 2/35/11 9/36/11 11/37/11
f 8/38/12 12/39/12 6/40/12
f 5/41/13 19/28/13 9/42/13
f 21/43/14 1/44/14 3/45/14
f 2/2/15 21/46/15 3/3/15
f 22/47/16 23/48/16 24/49/16
f 25/50/17 26/51/17 23/52/17
f 27/53/18 28/54/18 29/55/18
f 30/56/19 27/57/19 31/58/19
f 31/59/20 32/60/20 30/61/20
f 32/62/21 29/63/21 28/64/21
f 25/65/22 33/66/22 34/67/22
f 30/68/23 28/69/23 35/70/23
f 36/71/4 37/72/4 38/73/4
f 39/74/5 40/75/5 41/76/5
f 41/76/2 37/72/2 39/74/2
f 36/77/6 42/78/6 43/79/6
f 44/80/4 45/81/4 46/82/4
f 44/80/6 47/83/6 48/84/6
f 49/85/2 45/81/2 50/86/2
f 51/87/5 52/88/5 53/89/5
f 53/89/2 54/90/2 51/87/2
f 55/91/4 54/90/4 56/92/4
f 52/88/6 57/93/6 55/94/6
f 58/95/5 59/96/5 60/97/5
f 61/98/2 60/97/2 62/99/2
f 61/98/4 63/100/4 64/101/4
f 63/102/6 65/103/6 64/104/6
f 66/105/4 67/106/4 68/107/4
f 66/105/6 69/108/6 70/109/6
f 71/110/5 72/111/5 73/112/5
f 67/106/2 73/113/2 68/107/2
f 74/114/6 75/115/6 76/116/6
f 77/117/5 78/118/5 74/114/5
f 79/119/2 77/120/2 80/121/2
f 76/116/4 79/119/4 80/121/4
f 81/122/6 82/123/6 83/124/6
f 84/125/5 81/122/5 85/126/5
f 86/127/2 85/128/2 87/129/2
f 83/124/4 86/127/4 87/129/4
f 88/130/6 89/131/6 90/132/6
f 91/133/5 92/134/5 88/130/5
f 91/135/2 93/136/2 94/137/2
f 90/132/4 93/136/4 95/138/4
f 50/86/5 96/139/5 49/85/5
f 7/7/24 5/5/24 1/140/24
f 2/2/6 17/141/6 8/8/6
f 1/1/1 5/142/1 2/2/1
f 7/7/3 21/46/3 8/8/3
f 9/9/4 20/143/4 10/10/4
f 12/12/5 97/144/5 13/13/5
f 13/15/6 97/145/6 15/16/6
f 2/18/25 11/146/25 15/19/25
f 10/21/8 20/147/8 18/22/8
f 19/24/2 12/148/2 14/25/2
f 6/27/26 12/149/26 19/28/26
f 19/24/2 18/26/2 20/30/2
f 14/32/10 13/150/10 16/23/10
f 15/16/6 11/151/6 10/33/6
f 15/19/27 97/152/27 8/34/27
f 2/35/28 5/153/28 9/36/28
f 8/38/29 97/154/29 12/39/29
f 5/41/7 4/29/7 19/28/7
f 21/43/14 7/155/14 1/44/14
f 2/2/15 8/8/15 21/46/15
f 22/47/16 25/156/16 23/48/16
f 25/50/17 34/157/17 26/51/17
f 27/53/18 35/158/18 28/54/18
f 30/56/19 35/159/19 27/57/19
f 31/59/20 98/160/20 32/60/20
f 32/62/30 98/161/30 29/63/30
f 25/65/31 22/162/31 33/66/31
f 30/68/32 32/163/32 28/69/32
f 36/71/4 43/164/4 37/72/4
f 39/74/5 42/78/5 40/75/5
f 41/76/2 38/73/2 37/72/2
f 36/77/6 40/75/6 42/78/6
f 44/80/4 48/84/4 45/81/4
f 44/80/6 96/165/6 47/83/6
f 49/85/2 46/82/2 45/81/2
f 51/87/5 99/166/5 52/88/5
f 53/89/2 56/92/2 54/90/2
f 55/91/4 57/167/4 54/90/4
f 52/88/6 99/166/6 57/93/6
f 58/95/5 65/103/5 59/96/5
f 61/98/2 58/95/2 60/97/2
f 61/98/4 62/99/4 63/100/4
f 63/102/6 59/96/6 65/103/6
f 66/105/4 70/109/4 67/106/4
f 66/105/6 72/111/6 69/108/6
f 71/110/5 69/108/5 72/111/5
f 67/106/2 71/168/2 73/113/2
f 74/114/6 78/118/6 75/115/6
f 77/117/5 100/169/5 78/118/5
f 79/119/2 100/170/2 77/120/2
f 76/116/4 75/115/4 79/119/4
f 81/122/6 101/171/6 82/123/6
f 84/125/5 101/171/5 81/122/5
f 86/127/2 84/172/2 85/128/2
f 83/124/4 82/123/4 86/127/4
f 88/130/6 92/134/6 89/131/6
f 91/133/5 94/173/5 92/134/5
f 91/135/2 95/138/2 93/136/2
f 90/132/4 89/131/4 93/136/4
f 50/86/5 47/174/5 96/139/5
f 7/7/24 6/6/24 5/5/24
s 1
f 102/175/33 103/176/34 104/177/35
f 102/175/33 105/178/36 106/179/37
f 107/180/38 108/181/39 109/182/38
f 110/183/40 107/184/38 109/185/38
f 111/186/41 112/187/42 113/188/43
f 114/189/41 115/190/44 116/191/44
f 115/190/44 117/192/45 116/191/44
f 117/192/45 118/193/46 119/194/46
f 120/195/47 118/193/46 121/196/48
f 122/197/49 123/198/50 124/199/51
f 125/200/52 123/198/50 126/201/53
f 127/202/54 125/200/52 128/203/55
f 129/204/56 127/202/54 130/205/57
f 131/206/58 129/204/56 132/207/59
f 122/197/49 131/206/58 133/208/60
f 134/209/61 135/210/62 123/211/50
f 135/210/62 126/212/53 123/211/50
f 126/212/53 136/213/63 125/214/52
f 125/215/52 137/216/64 128/217/55
f 128/217/55 138/218/65 127/219/54
f 138/218/65 130/220/57 127/219/54
f 130/220/57 139/221/66 129/222/56
f 139/221/66 132/223/59 129/222/56
f 132/223/59 140/224/67 131/225/58
f 140/224/67 133/226/60 131/225/58
f 122/227/49 141/228/68 142/229/69
f 142/229/69 134/209/61 122/227/49
f 120/230/14 135/231/14 143/232/14
f 143/232/14 119/233/14 120/230/14
f 117/234/14 142/235/14 141/236/14
f 141/236/14 116/237/14 117/234/14
f 144/238/14 116/237/14 140/239/14
f 139/240/70 114/241/71 144/238/14
f 138/242/14 145/243/72 146/244/73
f 137/245/14 107/246/14 138/242/14
f 137/245/14 106/247/14 147/248/14
f 102/249/14 136/250/14 148/251/14
f 148/251/14 149/252/14 102/249/14
f 146/244/73 112/253/74 139/240/70
f 112/187/42 110/183/40 113/188/43
f 150/254/75 108/181/76 26/51/77
f 105/178/36 24/255/78 106/179/37
f 150/256/75 151/257/79 152/258/80
f 151/259/81 22/260/82 24/255/83
f 33/261/84 26/262/85 34/263/86
f 105/178/36 152/264/80 151/259/79
f 121/196/48 27/57/87 29/63/88
f 27/57/87 149/265/89 31/58/90
f 120/195/47 29/63/88 98/161/91
f 31/58/90 120/195/47 98/161/91
f 24/255/78 147/266/92 106/179/37
f 23/52/93 108/181/39 147/266/92
f 102/175/33 149/265/89 103/176/34
f 102/175/33 104/177/35 105/178/36
f 107/180/38 147/266/92 108/181/39
f 110/183/40 145/267/40 107/184/38
f 111/186/41 114/189/41 112/187/42
f 114/189/41 111/186/41 115/190/44
f 115/190/44 153/268/45 117/192/45
f 117/192/45 153/268/45 118/193/46
f 120/195/47 119/194/46 118/193/46
f 122/197/49 134/269/61 123/198/50
f 125/200/52 124/199/51 123/198/50
f 127/202/54 124/199/51 125/200/52
f 129/204/56 124/199/51 127/202/54
f 131/206/58 124/199/51 129/204/56
f 122/197/49 124/199/51 131/206/58
f 134/209/61 143/270/94 135/210/62
f 135/210/62 148/271/95 126/212/53
f 126/212/53 148/271/95 136/213/63
f 125/215/52 136/272/63 137/216/64
f 128/217/55 137/216/64 138/218/65
f 138/218/65 146/273/96 130/220/57
f 130/220/57 146/273/96 139/221/66
f 139/221/66 144/274/97 132/223/59
f 132/223/59 144/274/97 140/224/67
f 140/224/67 141/228/68 133/226/60
f 122/227/49 133/226/60 141/228/68
f 142/229/69 143/270/94 134/209/61
f 120/230/14 149/252/14 135/231/14
f 143/232/14 142/235/14 119/233/14
f 117/234/14 119/233/14 142/235/14
f 141/236/14 140/239/14 116/237/14
f 144/238/14 114/241/71 116/237/14
f 139/240/70 112/253/74 114/241/71
f 138/242/14 107/246/14 145/243/72
f 137/245/14 147/248/14 107/246/14
f 137/245/14 136/250/14 106/247/14
f 102/249/14 106/247/14 136/250/14
f 148/251/14 135/231/14 149/252/14
f 146/244/73 145/243/72 112/253/74
f 112/187/42 145/267/40 110/183/40
f 105/178/36 151/259/79 24/255/78
f 150/256/75 26/262/77 151/257/79
f 151/259/81 33/275/84 22/260/82
f 33/261/84 151/257/81 26/262/85
f 121/196/48 103/176/34 27/57/87
f 27/57/87 103/176/34 149/265/89
f 120/195/47 121/196/48 29/63/88
f 31/58/90 149/265/89 120/195/47
f 24/255/78 23/52/93 147/266/92
f 23/52/93 26/51/98 108/181/39
